<svg width="44" height="44" viewBox="0 0 44 44" fill="none" xmlns="http://www.w3.org/2000/svg">
<path d="M7.33317 22C7.8194 22 8.28572 22.1932 8.62953 22.537C8.97335 22.8808 9.1665 23.3471 9.1665 23.8333C9.1665 24.3196 8.97335 24.7859 8.62953 25.1297C8.28572 25.4735 7.8194 25.6667 7.33317 25.6667H5.49984C5.01361 25.6667 4.54729 25.4735 4.20347 25.1297C3.85966 24.7859 3.6665 24.3196 3.6665 23.8333C3.6665 23.3471 3.85966 22.8808 4.20347 22.537C4.54729 22.1932 5.01361 22 5.49984 22H7.33317ZM38.4998 22C38.9861 22 39.4524 22.1932 39.7962 22.537C40.14 22.8808 40.3332 23.3471 40.3332 23.8333C40.3332 24.3196 40.14 24.7859 39.7962 25.1297C39.4524 25.4735 38.9861 25.6667 38.4998 25.6667H36.6665C36.1803 25.6667 35.714 25.4735 35.3701 25.1297C35.0263 24.7859 34.8332 24.3196 34.8332 23.8333C34.8332 23.3471 35.0263 22.8808 35.3701 22.537C35.714 22.1932 36.1803 22 36.6665 22H38.4998ZM11.5627 10.8038L12.846 12.0872C13.18 12.4329 13.3647 12.896 13.3606 13.3767C13.3564 13.8574 13.1636 14.3173 12.8237 14.6572C12.4838 14.9971 12.0239 15.1899 11.5432 15.1941C11.0625 15.1982 10.5994 15.0135 10.2537 14.6795L8.97034 13.3962C8.63638 13.0504 8.45159 12.5873 8.45577 12.1066C8.45995 11.6259 8.65276 11.1661 8.99267 10.8262C9.33258 10.4863 9.79241 10.2934 10.2731 10.2893C10.7538 10.2851 11.2169 10.4699 11.5627 10.8038ZM35.0293 10.8038C35.373 11.1476 35.5661 11.6139 35.5661 12.1C35.5661 12.5861 35.373 13.0524 35.0293 13.3962L33.746 14.6795C33.4002 15.0135 32.9371 15.1982 32.4564 15.1941C31.9757 15.1899 31.5159 14.9971 31.176 14.6572C30.8361 14.3173 30.6433 13.8574 30.6391 13.3767C30.6349 12.896 30.8197 12.4329 31.1537 12.0872L32.437 10.8038C32.7808 10.4601 33.247 10.2671 33.7332 10.2671C34.2193 10.2671 34.6855 10.4601 35.0293 10.8038ZM21.9998 5.5C22.4861 5.5 22.9524 5.69315 23.2962 6.03697C23.64 6.38079 23.8332 6.8471 23.8332 7.33333V9.16667C23.8332 9.6529 23.64 10.1192 23.2962 10.463C22.9524 10.8068 22.4861 11 21.9998 11C21.5136 11 21.0473 10.8068 20.7035 10.463C20.3597 10.1192 20.1665 9.6529 20.1665 9.16667V7.33333C20.1665 6.8471 20.3597 6.38079 20.7035 6.03697C21.0473 5.69315 21.5136 5.5 21.9998 5.5ZM5.49984 29.3333H38.4998C38.9861 29.3333 39.4524 29.5265 39.7962 29.8703C40.14 30.2141 40.3332 30.6804 40.3332 31.1667C40.3332 31.6529 40.14 32.1192 39.7962 32.463C39.4524 32.8068 38.9861 33 38.4998 33H5.49984C5.01361 33 4.54729 32.8068 4.20347 32.463C3.85966 32.1192 3.6665 31.6529 3.6665 31.1667C3.6665 30.6804 3.85966 30.2141 4.20347 29.8703C4.54729 29.5265 5.01361 29.3333 5.49984 29.3333ZM21.9998 14.6667C23.5224 14.6663 25.0212 15.0452 26.3606 15.7691C27.7001 16.493 28.8382 17.5392 29.672 18.8132C30.5059 20.0872 31.0093 21.5488 31.1367 23.0661C31.2642 24.5833 31.0117 26.1084 30.402 27.5037H13.5977C12.988 26.1084 12.7355 24.5833 12.863 23.0661C12.9904 21.5488 13.4938 20.0872 14.3276 18.8132C15.1615 17.5392 16.2995 16.493 17.639 15.7691C18.9785 15.0452 20.4772 14.6663 21.9998 14.6667ZM21.9998 34.8333C22.4861 34.8333 22.9524 35.0265 23.2962 35.3703C23.64 35.7141 23.8332 36.1804 23.8332 36.6667C23.8332 37.1529 23.64 37.6192 23.2962 37.963C22.9524 38.3068 22.4861 38.5 21.9998 38.5H12.8332C12.3469 38.5 11.8806 38.3068 11.5368 37.963C11.193 37.6192 10.9998 37.1529 10.9998 36.6667C10.9998 36.1804 11.193 35.7141 11.5368 35.3703C11.8806 35.0265 12.3469 34.8333 12.8332 34.8333H21.9998ZM31.1665 34.8333C31.6527 34.8333 32.1191 35.0265 32.4629 35.3703C32.8067 35.7141 32.9998 36.1804 32.9998 36.6667C32.9998 37.1529 32.8067 37.6192 32.4629 37.963C32.1191 38.3068 31.6527 38.5 31.1665 38.5H29.3332C28.8469 38.5 28.3806 38.3068 28.0368 37.963C27.693 37.6192 27.4998 37.1529 27.4998 36.6667C27.4998 36.1804 27.693 35.7141 28.0368 35.3703C28.3806 35.0265 28.8469 34.8333 29.3332 34.8333H31.1665Z" fill="#FD8123"/>
</svg>
