<svg width="44" height="33" viewBox="0 0 44 33" fill="none" xmlns="http://www.w3.org/2000/svg">
<path d="M0.766602 21.624C0.766602 21.1907 0.939935 20.792 1.2866 20.428C1.66793 20.0987 2.08393 19.9253 2.49993 19.9253H6.5386C7.0066 19.9253 7.38794 20.0987 7.69993 20.428C8.01193 20.7573 8.16793 21.1733 8.16793 21.624C8.16793 22.1267 8.01193 22.5427 7.69993 22.872C7.55222 23.0323 7.37255 23.1598 7.17253 23.2464C6.9725 23.3329 6.75655 23.3766 6.5386 23.3747H2.49993C2.03193 23.3747 1.63327 23.2013 1.2866 22.8547C0.939935 22.4907 0.766602 22.0747 0.766602 21.624ZM6.5386 7.79199C6.5386 7.32399 6.6946 6.92532 6.98927 6.61332C7.38794 6.26666 7.7866 6.09332 8.21994 6.09332C8.6706 6.09332 9.06927 6.26666 9.3986 6.59599L12.2413 9.45599C12.5706 9.83732 12.7266 10.236 12.7266 10.652C12.7266 11.1373 12.5706 11.5533 12.2586 11.8653C11.9466 12.1773 11.5653 12.3507 11.1146 12.3507C10.6986 12.3507 10.2826 12.1773 9.90127 11.848L6.98927 9.05732C6.6946 8.69332 6.5386 8.25999 6.5386 7.79199ZM10.0053 31.192C10.0053 30.7067 10.1786 30.308 10.5079 30.0133C10.8199 29.7187 11.2013 29.5627 11.6866 29.5627H16.2453L21.6359 24.5013C21.8093 24.3627 21.9999 24.3627 22.2253 24.5013L27.7026 29.5627H32.5039C32.9719 29.5627 33.3706 29.7187 33.6999 30.048C33.8602 30.1957 33.9877 30.3754 34.0743 30.5754C34.1609 30.7754 34.2046 30.9914 34.2026 31.2093C34.2026 31.6773 34.0293 32.076 33.6999 32.4053C33.3706 32.7347 32.9719 32.908 32.5039 32.908H26.6453C26.4719 32.908 26.2986 32.8733 26.1426 32.7867L21.9653 28.852L17.8226 32.7867C17.6839 32.8733 17.5279 32.908 17.3373 32.908H11.6866C11.4631 32.9071 11.2421 32.8619 11.0362 32.7749C10.8303 32.6879 10.6438 32.5609 10.4874 32.4013C10.331 32.2417 10.2078 32.0526 10.1251 31.845C10.0423 31.6374 10.0016 31.4154 10.0053 31.192ZM11.5999 21.624C11.5999 23.3053 11.9639 24.8307 12.6746 26.2C12.7093 26.408 12.8653 26.512 13.1079 26.512H16.3666C16.4879 26.512 16.5746 26.46 16.6266 26.3733C16.6786 26.2693 16.6613 26.1653 16.5919 26.044C15.4826 24.7093 14.9279 23.236 14.9279 21.624C14.9279 19.6827 15.6213 18.0187 17.0079 16.6493C18.3946 15.28 20.0586 14.604 22.0173 14.604C23.9586 14.604 25.6053 15.28 26.9746 16.6493C28.3439 18.0187 29.0373 19.6653 29.0373 21.624C29.0373 23.2533 28.4826 24.7267 27.3906 26.044C27.3213 26.1653 27.3039 26.2693 27.3386 26.3733C27.3733 26.4773 27.4599 26.512 27.5986 26.512H30.8919C31.1173 26.512 31.2559 26.408 31.2906 26.2C32.0533 24.8653 32.3999 23.34 32.3999 21.624C32.3999 20.22 32.1226 18.868 31.5679 17.6027C31.0133 16.32 30.2679 15.228 29.3493 14.292C28.3963 13.3493 27.2728 12.5963 26.0386 12.0733C24.7559 11.5187 23.4213 11.2587 22.0173 11.2587C20.6133 11.2587 19.2613 11.536 17.9786 12.0733C16.6959 12.628 15.5866 13.356 14.6506 14.292C13.6836 15.2525 12.9162 16.3948 12.3926 17.6531C11.869 18.9115 11.5996 20.261 11.5999 21.624ZM20.3186 6.09332V2.10666C20.3186 1.60399 20.4746 1.20532 20.8039 0.875989C21.1333 0.546656 21.5493 0.390656 22.0346 0.390656C22.5199 0.390656 22.9186 0.546656 23.2479 0.875989C23.5773 1.20532 23.7333 1.63866 23.7333 2.12399V6.11066C23.7333 6.61332 23.5773 7.01199 23.2479 7.34132C22.9359 7.65332 22.5199 7.82666 22.0346 7.82666C21.8071 7.83524 21.5802 7.79655 21.3684 7.71301C21.1566 7.62947 20.9644 7.50291 20.8039 7.34132C20.6419 7.17764 20.5152 6.9824 20.4317 6.76772C20.3482 6.55304 20.3097 6.32349 20.3186 6.09332ZM31.3253 10.6693C31.3253 10.236 31.4813 9.83732 31.7933 9.47332L34.6013 6.61332C34.9306 6.28399 35.3466 6.11066 35.8146 6.11066C36.2826 6.11066 36.6986 6.28399 37.0106 6.61332C37.3399 6.94266 37.4959 7.34132 37.4959 7.80932C37.4959 8.31199 37.3399 8.72799 37.0453 9.07466L34.1333 11.8653C33.7693 12.1947 33.3533 12.368 32.9199 12.368C32.4519 12.368 32.0706 12.212 31.7759 11.8827C31.4813 11.5533 31.3253 11.1547 31.3253 10.6693ZM35.8493 21.624C35.8493 21.156 36.0053 20.7573 36.3173 20.428C36.6293 20.0987 37.0106 19.9253 37.4613 19.9253H41.5346C42.0026 19.9253 42.4013 20.0987 42.7306 20.428C43.0599 20.7573 43.2333 21.1733 43.2333 21.624C43.2333 22.1093 43.0599 22.508 42.7306 22.8547C42.4013 23.2013 42.0026 23.3747 41.5346 23.3747H37.4613C36.9933 23.3747 36.6119 23.2013 36.2999 22.872C36.0053 22.5253 35.8493 22.1093 35.8493 21.624Z" fill="#FBBF24"/>
</svg>
