<svg width="52" height="52" viewBox="0 0 52 52" fill="none" xmlns="http://www.w3.org/2000/svg">
<path d="M4.7666 26.624C4.7666 26.1907 4.93993 25.792 5.2866 25.428C5.66793 25.0987 6.08393 24.9253 6.49993 24.9253H10.5386C11.0066 24.9253 11.3879 25.0987 11.6999 25.428C12.0119 25.7573 12.1679 26.1733 12.1679 26.624C12.1679 27.1267 12.0119 27.5427 11.6999 27.872C11.5522 28.0323 11.3726 28.1598 11.1725 28.2464C10.9725 28.3329 10.7566 28.3766 10.5386 28.3747H6.49993C6.03193 28.3747 5.63327 28.2013 5.2866 27.8547C4.93993 27.4907 4.7666 27.0747 4.7666 26.624ZM10.5386 12.792C10.5386 12.324 10.6946 11.9253 10.9893 11.6133C11.3879 11.2667 11.7866 11.0933 12.2199 11.0933C12.6706 11.0933 13.0693 11.2667 13.3986 11.596L16.2413 14.456C16.5706 14.8373 16.7266 15.236 16.7266 15.652C16.7266 16.1373 16.5706 16.5533 16.2586 16.8653C15.9466 17.1773 15.5653 17.3507 15.1146 17.3507C14.6986 17.3507 14.2826 17.1773 13.9013 16.848L10.9893 14.0573C10.6946 13.6933 10.5386 13.26 10.5386 12.792ZM14.0053 36.192C14.0053 35.7067 14.1786 35.308 14.5079 35.0133C14.8199 34.7187 15.2013 34.5627 15.6866 34.5627H20.2453L25.6359 29.5013C25.8093 29.3627 25.9999 29.3627 26.2253 29.5013L31.7026 34.5627H36.5039C36.9719 34.5627 37.3706 34.7187 37.6999 35.048C37.8602 35.1957 37.9877 35.3754 38.0743 35.5754C38.1609 35.7754 38.2046 35.9914 38.2026 36.2093C38.2026 36.6773 38.0293 37.076 37.6999 37.4053C37.3706 37.7347 36.9719 37.908 36.5039 37.908H30.6453C30.4719 37.908 30.2986 37.8733 30.1426 37.7867L25.9653 33.852L21.8226 37.7867C21.6839 37.8733 21.5279 37.908 21.3373 37.908H15.6866C15.4631 37.9071 15.2421 37.8619 15.0362 37.7749C14.8303 37.6879 14.6438 37.5609 14.4874 37.4013C14.331 37.2417 14.2078 37.0526 14.1251 36.845C14.0423 36.6374 14.0016 36.4154 14.0053 36.192ZM15.5999 26.624C15.5999 28.3053 15.9639 29.8307 16.6746 31.2C16.7093 31.408 16.8653 31.512 17.1079 31.512H20.3666C20.4879 31.512 20.5746 31.46 20.6266 31.3733C20.6786 31.2693 20.6613 31.1653 20.5919 31.044C19.4826 29.7093 18.9279 28.236 18.9279 26.624C18.9279 24.6827 19.6213 23.0187 21.0079 21.6493C22.3946 20.28 24.0586 19.604 26.0173 19.604C27.9586 19.604 29.6053 20.28 30.9746 21.6493C32.3439 23.0187 33.0373 24.6653 33.0373 26.624C33.0373 28.2533 32.4826 29.7267 31.3906 31.044C31.3213 31.1653 31.3039 31.2693 31.3386 31.3733C31.3733 31.4773 31.4599 31.512 31.5986 31.512H34.8919C35.1173 31.512 35.2559 31.408 35.2906 31.2C36.0533 29.8653 36.3999 28.34 36.3999 26.624C36.3999 25.22 36.1226 23.868 35.5679 22.6027C35.0133 21.32 34.2679 20.228 33.3493 19.292C32.3963 18.3493 31.2728 17.5963 30.0386 17.0733C28.7559 16.5187 27.4213 16.2587 26.0173 16.2587C24.6133 16.2587 23.2613 16.536 21.9786 17.0733C20.6959 17.628 19.5866 18.356 18.6506 19.292C17.6836 20.2525 16.9162 21.3948 16.3926 22.6531C15.869 23.9115 15.5996 25.261 15.5999 26.624ZM24.3186 11.0933V7.10666C24.3186 6.60399 24.4746 6.20532 24.8039 5.87599C25.1333 5.54666 25.5493 5.39066 26.0346 5.39066C26.5199 5.39066 26.9186 5.54666 27.2479 5.87599C27.5773 6.20532 27.7333 6.63866 27.7333 7.12399V11.1107C27.7333 11.6133 27.5773 12.012 27.2479 12.3413C26.9359 12.6533 26.5199 12.8267 26.0346 12.8267C25.8071 12.8352 25.5802 12.7965 25.3684 12.713C25.1566 12.6295 24.9644 12.5029 24.8039 12.3413C24.6419 12.1776 24.5152 11.9824 24.4317 11.7677C24.3482 11.553 24.3097 11.3235 24.3186 11.0933ZM35.3253 15.6693C35.3253 15.236 35.4813 14.8373 35.7933 14.4733L38.6013 11.6133C38.9306 11.284 39.3466 11.1107 39.8146 11.1107C40.2826 11.1107 40.6986 11.284 41.0106 11.6133C41.3399 11.9427 41.4959 12.3413 41.4959 12.8093C41.4959 13.312 41.3399 13.728 41.0453 14.0747L38.1333 16.8653C37.7693 17.1947 37.3533 17.368 36.9199 17.368C36.4519 17.368 36.0706 17.212 35.7759 16.8827C35.4813 16.5533 35.3253 16.1547 35.3253 15.6693ZM39.8493 26.624C39.8493 26.156 40.0053 25.7573 40.3173 25.428C40.6293 25.0987 41.0106 24.9253 41.4613 24.9253H45.5346C46.0026 24.9253 46.4013 25.0987 46.7306 25.428C47.0599 25.7573 47.2333 26.1733 47.2333 26.624C47.2333 27.1093 47.0599 27.508 46.7306 27.8547C46.4013 28.2013 46.0026 28.3747 45.5346 28.3747H41.4613C40.9933 28.3747 40.6119 28.2013 40.2999 27.872C40.0053 27.5253 39.8493 27.1093 39.8493 26.624Z" fill="#FBBF24"/>
</svg>
